# xmcd
# Track frame offsets:
# 150
# 17169
# 42488
#
# Disc length: 946 seconds
# Revision: 1
# Processed by: cddbd v1.5.2PL0 Copyright (c) Steve Scherf et al.
# Submitted via: VisiTrax 2.11.3.279 - For more info visit www.synapsa.com
#
DISCID=1f03b003
DTITLE=Midt Om Natten - Køb Bananer
DYEAR=2004
DGENRE=
TTITLE0=Køb Bananer (Radio Mix)
TTITLE1=Køb Bananer (Club Mix)
TTITLE2=Køb Bananer (Live Version)
EXTD=
EXTT0=
EXTT1=
EXTT2=
PLAYORDER=
